<?xml version="1.0" encoding="utf-8"?>
<!-- Generator: Adobe Illustrator 21.0.0, SVG Export Plug-In . SVG Version: 6.00 Build 0)  -->
<svg version="1.1" id="Laag_1" xmlns="http://www.w3.org/2000/svg" xmlns:xlink="http://www.w3.org/1999/xlink" x="0px" y="0px"
	 viewBox="0 0 1502.426 464.269" style="enable-background:new 0 0 1502.426 464.269;" xml:space="preserve">
<style type="text/css">
	.Slagschaduw{fill:none;}
	.Afgeronde_x0020_hoeken_x0020_2_x0020_pt{fill:#FFFFFF;stroke:#000000;stroke-miterlimit:10;}
	.X_x0020_actief_x0020_weerspiegelen{fill:none;}
	.Zachte_x0020_schuine_x0020_kant{fill:url(#SVGID_1_);}
	.Schemering{fill:#FFFFFF;}
	.Gebladerte_AS{fill:#FFE501;}
	.Pompadoer_AS{fill-rule:evenodd;clip-rule:evenodd;fill:#5BA4CC;}
	.st0{fill:#2A3E50;}
	.st1{fill:none;}
	.st2{opacity:0.63;}
	.st3{fill:#384B59;}
	.st4{fill:#FFFFFF;}
	.st5{font-family:'LemonMilklight';}
	.st6{font-size:225.8549px;}
	.st7{letter-spacing:21;}
	.st8{letter-spacing:29;}
</style>
<linearGradient id="SVGID_1_" gradientUnits="userSpaceOnUse" x1="0" y1="247.6048" x2="0.7071" y2="248.3119">
	<stop  offset="0" style="stop-color:#E1DFDF"/>
	<stop  offset="0.1738" style="stop-color:#DBDAD8"/>
	<stop  offset="0.352" style="stop-color:#CCC9C6"/>
	<stop  offset="0.5323" style="stop-color:#B2AEA9"/>
	<stop  offset="0.7139" style="stop-color:#918C87"/>
	<stop  offset="0.8949" style="stop-color:#6B6664"/>
	<stop  offset="1" style="stop-color:#535050"/>
</linearGradient>
<rect class="st0" width="1502.426" height="464.403"/>
<line class="st1" x1="224.317" y1="539.333" x2="756.409" y2="530.574"/>
<g class="st2">
	
		<image style="overflow:visible;opacity:0.75;" width="1488" height="1488" xlink:href="768672B14CD8285A.png"  transform="matrix(0.24 0 0 0.24 917.0282 63.6177)">
	</image>
	<g>
		<g>
			<path class="st3" d="M1095.588,172.995c-37.405,0-67.956,29.837-69.148,66.959c-9.004,4.72-15.166,14.154-15.166,25.012
				c0,15.562,12.664,28.223,28.226,28.223c2.823,0,5.549-0.421,8.124-1.197c12.446,12.005,29.348,19.415,47.964,19.415
				c38.161,0,69.208-31.044,69.208-69.208C1164.797,204.04,1133.75,172.995,1095.588,172.995z M1028.645,264.966
				c0-5.987,4.87-10.857,10.855-10.857c5.985,0,10.855,4.87,10.855,10.857c0,5.982-4.87,10.853-10.855,10.853
				C1033.515,275.818,1028.645,270.948,1028.645,264.966z M1095.588,294.036c-12.731,0-24.396-4.625-33.424-12.27
				c3.492-4.7,5.562-10.512,5.562-16.8c0-14.034-10.291-25.698-23.719-27.863c2.57-26.199,24.721-46.742,51.582-46.742
				c28.584,0,51.837,23.253,51.837,51.837C1147.426,270.783,1124.173,294.036,1095.588,294.036z"/>
			<path class="st3" d="M1196.57,184.364c3.788-5.126,6.032-11.459,6.032-18.308c0-17.02-13.849-30.869-30.869-30.869
				c-6.852,0-13.19,2.245-18.315,6.038c-17.411-10.021-37.2-15.392-57.83-15.392c-31.082,0-60.305,12.105-82.283,34.086
				c-21.978,21.975-34.083,51.201-34.083,82.28c0,31.084,12.105,60.305,34.083,82.285c21.981,21.981,51.201,34.081,82.283,34.081
				c31.084,0,60.307-12.1,82.285-34.081c21.978-21.981,34.083-51.201,34.083-82.285
				C1211.957,221.571,1206.588,201.78,1196.57,184.364z M1185.234,166.056c0,7.445-6.058,13.503-13.5,13.503
				c-7.445,0-13.503-6.058-13.503-13.503c0-7.445,6.058-13.498,13.503-13.498C1179.177,152.558,1185.234,158.611,1185.234,166.056z
				 M1165.591,312.204c-18.699,18.694-43.558,28.995-70.003,28.995c-26.442,0-51.301-10.301-70-28.995
				c-18.699-18.699-28.995-43.56-28.995-70.005c0-26.44,10.296-51.301,28.995-70c18.699-18.699,43.558-28.995,70-28.995
				c16.785,0,32.918,4.169,47.253,11.99c-1.275,3.382-1.979,7.04-1.979,10.862c0,17.025,13.849,30.874,30.871,30.874
				c3.82,0,7.483-0.701,10.863-1.979c7.819,14.335,11.99,30.468,11.99,47.248C1194.586,268.644,1184.29,293.505,1165.591,312.204z"
				/>
			<path class="st3" d="M1259.117,242.199c0-43.68-17.01-84.746-47.897-115.629c-30.886-30.884-71.952-47.894-115.632-47.894
				c-43.678,0-84.743,17.01-115.63,47.894c-30.886,30.884-47.897,71.949-47.897,115.629c0,43.68,17.01,84.746,47.897,115.634
				c30.886,30.884,71.952,47.894,115.63,47.894c39.592,0,77.035-13.979,106.696-39.592c4.434,2.36,9.49,3.708,14.853,3.708
				c17.469,0,31.683-14.214,31.683-31.686c0-7.996-2.986-15.307-7.894-20.888C1252.804,294.342,1259.117,268.759,1259.117,242.199z
				 M992.242,345.548c-27.605-27.602-42.809-64.308-42.809-103.349s15.204-75.742,42.809-103.349
				c27.605-27.602,64.308-42.809,103.347-42.809c39.043,0,75.744,15.206,103.352,42.809c27.605,27.607,42.806,64.308,42.806,103.349
				c0,23.173-5.374,45.509-15.497,65.616c-2.889-0.867-5.945-1.338-9.111-1.338c-17.471,0-31.686,14.215-31.686,31.681
				c0,5.772,1.561,11.183,4.266,15.848c-26.312,22.231-59.285,34.351-94.13,34.351
				C1056.55,388.356,1019.846,373.155,992.242,345.548z M1217.138,352.472c-7.894,0-14.315-6.418-14.315-14.315
				c0-7.891,6.421-14.31,14.315-14.31c7.891,0,14.315,6.418,14.315,14.31C1231.452,346.054,1225.029,352.472,1217.138,352.472z"/>
		</g>
	</g>
</g>
<rect x="314.812" y="159.037" class="st1" width="1016.82" height="215.637"/>
<text transform="matrix(1 0 0 1 314.8111 329.8624)"><tspan x="0" y="0" class="st4 st5 st6 st7">Spac</tspan><tspan x="615.062" y="0" class="st4 st5 st6 st8">eX</tspan></text>
</svg>
